<?xml version="1.0" encoding="UTF-8" standalone="no"?>
<!DOCTYPE svg PUBLIC "-//W3C//DTD SVG 1.1//EN"
 "http://www.w3.org/Graphics/SVG/1.1/DTD/svg11.dtd">
<!-- Generated by graphviz version 8.0.5 (20230430.1635)
 -->
<!-- Title: Tree Pages: 1 -->
<svg width="755pt" height="588pt"
 viewBox="0.00 0.00 755.25 588.00" xmlns="http://www.w3.org/2000/svg" xmlns:xlink="http://www.w3.org/1999/xlink">
<g id="graph0" class="graph" transform="scale(1 1) rotate(0) translate(4 584)">
<title>Tree</title>
<polygon fill="white" stroke="none" points="-4,4 -4,-584 751.25,-584 751.25,4 -4,4"/>
<!-- 0 -->
<g id="node1" class="node">
<title>0</title>
<polygon fill="#ffffff" stroke="black" points="464.75,-580 299.5,-580 299.5,-489.5 464.75,-489.5 464.75,-580"/>
<text text-anchor="middle" x="382.12" y="-562.7" font-family="Helvetica,sans-Serif" font-size="14.00">petal length (cm) &lt;= 2.6</text>
<text text-anchor="middle" x="382.12" y="-546.2" font-family="Helvetica,sans-Serif" font-size="14.00">gini = 0.667</text>
<text text-anchor="middle" x="382.12" y="-529.7" font-family="Helvetica,sans-Serif" font-size="14.00">samples = 120</text>
<text text-anchor="middle" x="382.12" y="-513.2" font-family="Helvetica,sans-Serif" font-size="14.00">value = [40, 40, 40]</text>
<text text-anchor="middle" x="382.12" y="-496.7" font-family="Helvetica,sans-Serif" font-size="14.00">class = setosa</text>
</g>
<!-- 1 -->
<g id="node2" class="node">
<title>1</title>
<polygon fill="#e58139" stroke="black" points="361.25,-445.25 241,-445.25 241,-371.25 361.25,-371.25 361.25,-445.25"/>
<text text-anchor="middle" x="301.12" y="-427.95" font-family="Helvetica,sans-Serif" font-size="14.00">gini = 0.0</text>
<text text-anchor="middle" x="301.12" y="-411.45" font-family="Helvetica,sans-Serif" font-size="14.00">samples = 40</text>
<text text-anchor="middle" x="301.12" y="-394.95" font-family="Helvetica,sans-Serif" font-size="14.00">value = [40, 0, 0]</text>
<text text-anchor="middle" x="301.12" y="-378.45" font-family="Helvetica,sans-Serif" font-size="14.00">class = setosa</text>
</g>
<!-- 0&#45;&gt;1 -->
<g id="edge1" class="edge">
<title>0&#45;&gt;1</title>
<path fill="none" stroke="black" d="M353.11,-489.15C345.73,-477.81 337.8,-465.62 330.41,-454.26"/>
<polygon fill="black" stroke="black" points="333,-452.83 324.62,-446.36 327.14,-456.65 333,-452.83"/>
<text text-anchor="middle" x="319.44" y="-464.76" font-family="Helvetica,sans-Serif" font-size="14.00">True</text>
</g>
<!-- 2 -->
<g id="node3" class="node">
<title>2</title>
<polygon fill="#ffffff" stroke="black" points="546.88,-453.5 379.38,-453.5 379.38,-363 546.88,-363 546.88,-453.5"/>
<text text-anchor="middle" x="463.12" y="-436.2" font-family="Helvetica,sans-Serif" font-size="14.00">petal width (cm) &lt;= 1.75</text>
<text text-anchor="middle" x="463.12" y="-419.7" font-family="Helvetica,sans-Serif" font-size="14.00">gini = 0.5</text>
<text text-anchor="middle" x="463.12" y="-403.2" font-family="Helvetica,sans-Serif" font-size="14.00">samples = 80</text>
<text text-anchor="middle" x="463.12" y="-386.7" font-family="Helvetica,sans-Serif" font-size="14.00">value = [0, 40, 40]</text>
<text text-anchor="middle" x="463.12" y="-370.2" font-family="Helvetica,sans-Serif" font-size="14.00">class = versicolor</text>
</g>
<!-- 0&#45;&gt;2 -->
<g id="edge2" class="edge">
<title>0&#45;&gt;2</title>
<path fill="none" stroke="black" d="M411.14,-489.15C416.66,-480.66 422.5,-471.69 428.19,-462.95"/>
<polygon fill="black" stroke="black" points="431.52,-465.24 434.04,-454.95 425.65,-461.43 431.52,-465.24"/>
<text text-anchor="middle" x="439.22" y="-473.36" font-family="Helvetica,sans-Serif" font-size="14.00">False</text>
</g>
<!-- 3 -->
<g id="node4" class="node">
<title>3</title>
<polygon fill="#52e891" stroke="black" points="453.88,-327 280.38,-327 280.38,-236.5 453.88,-236.5 453.88,-327"/>
<text text-anchor="middle" x="367.12" y="-309.7" font-family="Helvetica,sans-Serif" font-size="14.00">petal length (cm) &lt;= 4.95</text>
<text text-anchor="middle" x="367.12" y="-293.2" font-family="Helvetica,sans-Serif" font-size="14.00">gini = 0.201</text>
<text text-anchor="middle" x="367.12" y="-276.7" font-family="Helvetica,sans-Serif" font-size="14.00">samples = 44</text>
<text text-anchor="middle" x="367.12" y="-260.2" font-family="Helvetica,sans-Serif" font-size="14.00">value = [0, 39, 5]</text>
<text text-anchor="middle" x="367.12" y="-243.7" font-family="Helvetica,sans-Serif" font-size="14.00">class = versicolor</text>
</g>
<!-- 2&#45;&gt;3 -->
<g id="edge3" class="edge">
<title>2&#45;&gt;3</title>
<path fill="none" stroke="black" d="M428.74,-362.65C422.05,-353.98 414.98,-344.81 408.11,-335.9"/>
<polygon fill="black" stroke="black" points="410.47,-334.23 401.59,-328.45 404.93,-338.51 410.47,-334.23"/>
</g>
<!-- 10 -->
<g id="node11" class="node">
<title>10</title>
<polygon fill="#853fe6" stroke="black" points="645.88,-327 472.38,-327 472.38,-236.5 645.88,-236.5 645.88,-327"/>
<text text-anchor="middle" x="559.12" y="-309.7" font-family="Helvetica,sans-Serif" font-size="14.00">petal length (cm) &lt;= 4.85</text>
<text text-anchor="middle" x="559.12" y="-293.2" font-family="Helvetica,sans-Serif" font-size="14.00">gini = 0.054</text>
<text text-anchor="middle" x="559.12" y="-276.7" font-family="Helvetica,sans-Serif" font-size="14.00">samples = 36</text>
<text text-anchor="middle" x="559.12" y="-260.2" font-family="Helvetica,sans-Serif" font-size="14.00">value = [0, 1, 35]</text>
<text text-anchor="middle" x="559.12" y="-243.7" font-family="Helvetica,sans-Serif" font-size="14.00">class = virginica</text>
</g>
<!-- 2&#45;&gt;10 -->
<g id="edge10" class="edge">
<title>2&#45;&gt;10</title>
<path fill="none" stroke="black" d="M497.51,-362.65C504.2,-353.98 511.27,-344.81 518.14,-335.9"/>
<polygon fill="black" stroke="black" points="521.32,-338.51 524.66,-328.45 515.78,-334.23 521.32,-338.51"/>
</g>
<!-- 4 -->
<g id="node5" class="node">
<title>4</title>
<polygon fill="#3ee684" stroke="black" points="272.88,-200.5 105.38,-200.5 105.38,-110 272.88,-110 272.88,-200.5"/>
<text text-anchor="middle" x="189.12" y="-183.2" font-family="Helvetica,sans-Serif" font-size="14.00">petal width (cm) &lt;= 1.65</text>
<text text-anchor="middle" x="189.12" y="-166.7" font-family="Helvetica,sans-Serif" font-size="14.00">gini = 0.051</text>
<text text-anchor="middle" x="189.12" y="-150.2" font-family="Helvetica,sans-Serif" font-size="14.00">samples = 38</text>
<text text-anchor="middle" x="189.12" y="-133.7" font-family="Helvetica,sans-Serif" font-size="14.00">value = [0, 37, 1]</text>
<text text-anchor="middle" x="189.12" y="-117.2" font-family="Helvetica,sans-Serif" font-size="14.00">class = versicolor</text>
</g>
<!-- 3&#45;&gt;4 -->
<g id="edge4" class="edge">
<title>3&#45;&gt;4</title>
<path fill="none" stroke="black" d="M303.37,-236.15C289.95,-226.77 275.69,-216.8 261.97,-207.2"/>
<polygon fill="black" stroke="black" points="264.24,-203.82 254.04,-200.95 260.23,-209.55 264.24,-203.82"/>
</g>
<!-- 7 -->
<g id="node8" class="node">
<title>7</title>
<polygon fill="#c09cf2" stroke="black" points="458.88,-200.5 291.38,-200.5 291.38,-110 458.88,-110 458.88,-200.5"/>
<text text-anchor="middle" x="375.12" y="-183.2" font-family="Helvetica,sans-Serif" font-size="14.00">petal width (cm) &lt;= 1.55</text>
<text text-anchor="middle" x="375.12" y="-166.7" font-family="Helvetica,sans-Serif" font-size="14.00">gini = 0.444</text>
<text text-anchor="middle" x="375.12" y="-150.2" font-family="Helvetica,sans-Serif" font-size="14.00">samples = 6</text>
<text text-anchor="middle" x="375.12" y="-133.7" font-family="Helvetica,sans-Serif" font-size="14.00">value = [0, 2, 4]</text>
<text text-anchor="middle" x="375.12" y="-117.2" font-family="Helvetica,sans-Serif" font-size="14.00">class = virginica</text>
</g>
<!-- 3&#45;&gt;7 -->
<g id="edge7" class="edge">
<title>3&#45;&gt;7</title>
<path fill="none" stroke="black" d="M369.99,-236.15C370.5,-228.29 371.03,-220.01 371.55,-211.89"/>
<polygon fill="black" stroke="black" points="375.1,-212.16 372.25,-201.95 368.12,-211.71 375.1,-212.16"/>
</g>
<!-- 5 -->
<g id="node6" class="node">
<title>5</title>
<polygon fill="#39e581" stroke="black" points="126.25,-74 0,-74 0,0 126.25,0 126.25,-74"/>
<text text-anchor="middle" x="63.12" y="-56.7" font-family="Helvetica,sans-Serif" font-size="14.00">gini = 0.0</text>
<text text-anchor="middle" x="63.12" y="-40.2" font-family="Helvetica,sans-Serif" font-size="14.00">samples = 37</text>
<text text-anchor="middle" x="63.12" y="-23.7" font-family="Helvetica,sans-Serif" font-size="14.00">value = [0, 37, 0]</text>
<text text-anchor="middle" x="63.12" y="-7.2" font-family="Helvetica,sans-Serif" font-size="14.00">class = versicolor</text>
</g>
<!-- 4&#45;&gt;5 -->
<g id="edge5" class="edge">
<title>4&#45;&gt;5</title>
<path fill="none" stroke="black" d="M140.77,-109.64C130.8,-100.44 120.32,-90.77 110.39,-81.61"/>
<polygon fill="black" stroke="black" points="113.29,-79.6 103.57,-75.39 108.55,-84.75 113.29,-79.6"/>
</g>
<!-- 6 -->
<g id="node7" class="node">
<title>6</title>
<polygon fill="#8139e5" stroke="black" points="260,-74 144.25,-74 144.25,0 260,0 260,-74"/>
<text text-anchor="middle" x="202.12" y="-56.7" font-family="Helvetica,sans-Serif" font-size="14.00">gini = 0.0</text>
<text text-anchor="middle" x="202.12" y="-40.2" font-family="Helvetica,sans-Serif" font-size="14.00">samples = 1</text>
<text text-anchor="middle" x="202.12" y="-23.7" font-family="Helvetica,sans-Serif" font-size="14.00">value = [0, 0, 1]</text>
<text text-anchor="middle" x="202.12" y="-7.2" font-family="Helvetica,sans-Serif" font-size="14.00">class = virginica</text>
</g>
<!-- 4&#45;&gt;6 -->
<g id="edge6" class="edge">
<title>4&#45;&gt;6</title>
<path fill="none" stroke="black" d="M194.11,-109.64C195.01,-101.63 195.95,-93.25 196.85,-85.17"/>
<polygon fill="black" stroke="black" points="200.42,-85.72 198.06,-75.39 193.47,-84.94 200.42,-85.72"/>
</g>
<!-- 8 -->
<g id="node9" class="node">
<title>8</title>
<polygon fill="#8139e5" stroke="black" points="420,-74 304.25,-74 304.25,0 420,0 420,-74"/>
<text text-anchor="middle" x="362.12" y="-56.7" font-family="Helvetica,sans-Serif" font-size="14.00">gini = 0.0</text>
<text text-anchor="middle" x="362.12" y="-40.2" font-family="Helvetica,sans-Serif" font-size="14.00">samples = 3</text>
<text text-anchor="middle" x="362.12" y="-23.7" font-family="Helvetica,sans-Serif" font-size="14.00">value = [0, 0, 3]</text>
<text text-anchor="middle" x="362.12" y="-7.2" font-family="Helvetica,sans-Serif" font-size="14.00">class = virginica</text>
</g>
<!-- 7&#45;&gt;8 -->
<g id="edge8" class="edge">
<title>7&#45;&gt;8</title>
<path fill="none" stroke="black" d="M370.14,-109.64C369.24,-101.63 368.3,-93.25 367.4,-85.17"/>
<polygon fill="black" stroke="black" points="370.78,-84.94 366.19,-75.39 363.83,-85.72 370.78,-84.94"/>
</g>
<!-- 9 -->
<g id="node10" class="node">
<title>9</title>
<polygon fill="#9cf2c0" stroke="black" points="564.25,-74 438,-74 438,0 564.25,0 564.25,-74"/>
<text text-anchor="middle" x="501.12" y="-56.7" font-family="Helvetica,sans-Serif" font-size="14.00">gini = 0.444</text>
<text text-anchor="middle" x="501.12" y="-40.2" font-family="Helvetica,sans-Serif" font-size="14.00">samples = 3</text>
<text text-anchor="middle" x="501.12" y="-23.7" font-family="Helvetica,sans-Serif" font-size="14.00">value = [0, 2, 1]</text>
<text text-anchor="middle" x="501.12" y="-7.2" font-family="Helvetica,sans-Serif" font-size="14.00">class = versicolor</text>
</g>
<!-- 7&#45;&gt;9 -->
<g id="edge9" class="edge">
<title>7&#45;&gt;9</title>
<path fill="none" stroke="black" d="M423.48,-109.64C433.45,-100.44 443.93,-90.77 453.86,-81.61"/>
<polygon fill="black" stroke="black" points="455.7,-84.75 460.68,-75.39 450.96,-79.6 455.7,-84.75"/>
</g>
<!-- 11 -->
<g id="node12" class="node">
<title>11</title>
<polygon fill="#c09cf2" stroke="black" points="609,-192.25 493.25,-192.25 493.25,-118.25 609,-118.25 609,-192.25"/>
<text text-anchor="middle" x="551.12" y="-174.95" font-family="Helvetica,sans-Serif" font-size="14.00">gini = 0.444</text>
<text text-anchor="middle" x="551.12" y="-158.45" font-family="Helvetica,sans-Serif" font-size="14.00">samples = 3</text>
<text text-anchor="middle" x="551.12" y="-141.95" font-family="Helvetica,sans-Serif" font-size="14.00">value = [0, 1, 2]</text>
<text text-anchor="middle" x="551.12" y="-125.45" font-family="Helvetica,sans-Serif" font-size="14.00">class = virginica</text>
</g>
<!-- 10&#45;&gt;11 -->
<g id="edge11" class="edge">
<title>10&#45;&gt;11</title>
<path fill="none" stroke="black" d="M556.26,-236.15C555.57,-225.49 554.84,-214.06 554.15,-203.29"/>
<polygon fill="black" stroke="black" points="557.58,-203.11 553.45,-193.36 550.59,-203.56 557.58,-203.11"/>
</g>
<!-- 12 -->
<g id="node13" class="node">
<title>12</title>
<polygon fill="#8139e5" stroke="black" points="747.25,-192.25 627,-192.25 627,-118.25 747.25,-118.25 747.25,-192.25"/>
<text text-anchor="middle" x="687.12" y="-174.95" font-family="Helvetica,sans-Serif" font-size="14.00">gini = 0.0</text>
<text text-anchor="middle" x="687.12" y="-158.45" font-family="Helvetica,sans-Serif" font-size="14.00">samples = 33</text>
<text text-anchor="middle" x="687.12" y="-141.95" font-family="Helvetica,sans-Serif" font-size="14.00">value = [0, 0, 33]</text>
<text text-anchor="middle" x="687.12" y="-125.45" font-family="Helvetica,sans-Serif" font-size="14.00">class = virginica</text>
</g>
<!-- 10&#45;&gt;12 -->
<g id="edge12" class="edge">
<title>10&#45;&gt;12</title>
<path fill="none" stroke="black" d="M604.97,-236.15C617.1,-224.36 630.17,-211.65 642.24,-199.91"/>
<polygon fill="black" stroke="black" points="644.28,-202.84 649,-193.36 639.4,-197.82 644.28,-202.84"/>
</g>
</g>
</svg>
