<?xml version="1.0" encoding="UTF-8" standalone="no"?>
<!DOCTYPE svg PUBLIC "-//W3C//DTD SVG 1.1//EN"
 "http://www.w3.org/Graphics/SVG/1.1/DTD/svg11.dtd">
<!-- Generated by graphviz version 8.0.5 (20230430.1635)
 -->
<!-- Title: Tree Pages: 1 -->
<svg width="902pt" height="715pt"
 viewBox="0.00 0.00 902.25 714.50" xmlns="http://www.w3.org/2000/svg" xmlns:xlink="http://www.w3.org/1999/xlink">
<g id="graph0" class="graph" transform="scale(1 1) rotate(0) translate(4 710.5)">
<title>Tree</title>
<polygon fill="white" stroke="none" points="-4,4 -4,-710.5 898.25,-710.5 898.25,4 -4,4"/>
<!-- 0 -->
<g id="node1" class="node">
<title>0</title>
<polygon fill="#ffffff" stroke="black" points="550.75,-706.5 385.5,-706.5 385.5,-616 550.75,-616 550.75,-706.5"/>
<text text-anchor="middle" x="468.12" y="-689.2" font-family="Helvetica,sans-Serif" font-size="14.00">petal length (cm) &lt;= 2.6</text>
<text text-anchor="middle" x="468.12" y="-672.7" font-family="Helvetica,sans-Serif" font-size="14.00">gini = 0.667</text>
<text text-anchor="middle" x="468.12" y="-656.2" font-family="Helvetica,sans-Serif" font-size="14.00">samples = 120</text>
<text text-anchor="middle" x="468.12" y="-639.7" font-family="Helvetica,sans-Serif" font-size="14.00">value = [40, 40, 40]</text>
<text text-anchor="middle" x="468.12" y="-623.2" font-family="Helvetica,sans-Serif" font-size="14.00">class = setosa</text>
</g>
<!-- 1 -->
<g id="node2" class="node">
<title>1</title>
<polygon fill="#e58139" stroke="black" points="447.25,-571.75 327,-571.75 327,-497.75 447.25,-497.75 447.25,-571.75"/>
<text text-anchor="middle" x="387.12" y="-554.45" font-family="Helvetica,sans-Serif" font-size="14.00">gini = 0.0</text>
<text text-anchor="middle" x="387.12" y="-537.95" font-family="Helvetica,sans-Serif" font-size="14.00">samples = 40</text>
<text text-anchor="middle" x="387.12" y="-521.45" font-family="Helvetica,sans-Serif" font-size="14.00">value = [40, 0, 0]</text>
<text text-anchor="middle" x="387.12" y="-504.95" font-family="Helvetica,sans-Serif" font-size="14.00">class = setosa</text>
</g>
<!-- 0&#45;&gt;1 -->
<g id="edge1" class="edge">
<title>0&#45;&gt;1</title>
<path fill="none" stroke="black" d="M439.11,-615.65C431.73,-604.31 423.8,-592.12 416.41,-580.76"/>
<polygon fill="black" stroke="black" points="419,-579.33 410.62,-572.86 413.14,-583.15 419,-579.33"/>
<text text-anchor="middle" x="405.44" y="-591.26" font-family="Helvetica,sans-Serif" font-size="14.00">True</text>
</g>
<!-- 2 -->
<g id="node3" class="node">
<title>2</title>
<polygon fill="#ffffff" stroke="black" points="632.88,-580 465.38,-580 465.38,-489.5 632.88,-489.5 632.88,-580"/>
<text text-anchor="middle" x="549.12" y="-562.7" font-family="Helvetica,sans-Serif" font-size="14.00">petal width (cm) &lt;= 1.75</text>
<text text-anchor="middle" x="549.12" y="-546.2" font-family="Helvetica,sans-Serif" font-size="14.00">gini = 0.5</text>
<text text-anchor="middle" x="549.12" y="-529.7" font-family="Helvetica,sans-Serif" font-size="14.00">samples = 80</text>
<text text-anchor="middle" x="549.12" y="-513.2" font-family="Helvetica,sans-Serif" font-size="14.00">value = [0, 40, 40]</text>
<text text-anchor="middle" x="549.12" y="-496.7" font-family="Helvetica,sans-Serif" font-size="14.00">class = versicolor</text>
</g>
<!-- 0&#45;&gt;2 -->
<g id="edge2" class="edge">
<title>0&#45;&gt;2</title>
<path fill="none" stroke="black" d="M497.14,-615.65C502.66,-607.16 508.5,-598.19 514.19,-589.45"/>
<polygon fill="black" stroke="black" points="517.52,-591.74 520.04,-581.45 511.65,-587.93 517.52,-591.74"/>
<text text-anchor="middle" x="525.22" y="-599.86" font-family="Helvetica,sans-Serif" font-size="14.00">False</text>
</g>
<!-- 3 -->
<g id="node4" class="node">
<title>3</title>
<polygon fill="#52e891" stroke="black" points="517.88,-453.5 344.38,-453.5 344.38,-363 517.88,-363 517.88,-453.5"/>
<text text-anchor="middle" x="431.12" y="-436.2" font-family="Helvetica,sans-Serif" font-size="14.00">petal length (cm) &lt;= 4.95</text>
<text text-anchor="middle" x="431.12" y="-419.7" font-family="Helvetica,sans-Serif" font-size="14.00">gini = 0.201</text>
<text text-anchor="middle" x="431.12" y="-403.2" font-family="Helvetica,sans-Serif" font-size="14.00">samples = 44</text>
<text text-anchor="middle" x="431.12" y="-386.7" font-family="Helvetica,sans-Serif" font-size="14.00">value = [0, 39, 5]</text>
<text text-anchor="middle" x="431.12" y="-370.2" font-family="Helvetica,sans-Serif" font-size="14.00">class = versicolor</text>
</g>
<!-- 2&#45;&gt;3 -->
<g id="edge3" class="edge">
<title>2&#45;&gt;3</title>
<path fill="none" stroke="black" d="M506.86,-489.15C498.47,-480.3 489.59,-470.93 480.98,-461.85"/>
<polygon fill="black" stroke="black" points="483.91,-459.8 474.49,-454.95 478.83,-464.62 483.91,-459.8"/>
</g>
<!-- 12 -->
<g id="node13" class="node">
<title>12</title>
<polygon fill="#853fe6" stroke="black" points="753.88,-453.5 580.38,-453.5 580.38,-363 753.88,-363 753.88,-453.5"/>
<text text-anchor="middle" x="667.12" y="-436.2" font-family="Helvetica,sans-Serif" font-size="14.00">petal length (cm) &lt;= 4.85</text>
<text text-anchor="middle" x="667.12" y="-419.7" font-family="Helvetica,sans-Serif" font-size="14.00">gini = 0.054</text>
<text text-anchor="middle" x="667.12" y="-403.2" font-family="Helvetica,sans-Serif" font-size="14.00">samples = 36</text>
<text text-anchor="middle" x="667.12" y="-386.7" font-family="Helvetica,sans-Serif" font-size="14.00">value = [0, 1, 35]</text>
<text text-anchor="middle" x="667.12" y="-370.2" font-family="Helvetica,sans-Serif" font-size="14.00">class = virginica</text>
</g>
<!-- 2&#45;&gt;12 -->
<g id="edge12" class="edge">
<title>2&#45;&gt;12</title>
<path fill="none" stroke="black" d="M591.39,-489.15C599.78,-480.3 608.66,-470.93 617.27,-461.85"/>
<polygon fill="black" stroke="black" points="619.42,-464.62 623.76,-454.95 614.34,-459.8 619.42,-464.62"/>
</g>
<!-- 4 -->
<g id="node5" class="node">
<title>4</title>
<polygon fill="#3ee684" stroke="black" points="285.88,-327 118.38,-327 118.38,-236.5 285.88,-236.5 285.88,-327"/>
<text text-anchor="middle" x="202.12" y="-309.7" font-family="Helvetica,sans-Serif" font-size="14.00">petal width (cm) &lt;= 1.65</text>
<text text-anchor="middle" x="202.12" y="-293.2" font-family="Helvetica,sans-Serif" font-size="14.00">gini = 0.051</text>
<text text-anchor="middle" x="202.12" y="-276.7" font-family="Helvetica,sans-Serif" font-size="14.00">samples = 38</text>
<text text-anchor="middle" x="202.12" y="-260.2" font-family="Helvetica,sans-Serif" font-size="14.00">value = [0, 37, 1]</text>
<text text-anchor="middle" x="202.12" y="-243.7" font-family="Helvetica,sans-Serif" font-size="14.00">class = versicolor</text>
</g>
<!-- 3&#45;&gt;4 -->
<g id="edge4" class="edge">
<title>3&#45;&gt;4</title>
<path fill="none" stroke="black" d="M349.1,-362.65C331.17,-352.91 312.09,-342.54 293.82,-332.6"/>
<polygon fill="black" stroke="black" points="295.81,-329.15 285.35,-327.45 292.46,-335.3 295.81,-329.15"/>
</g>
<!-- 7 -->
<g id="node8" class="node">
<title>7</title>
<polygon fill="#c09cf2" stroke="black" points="514.88,-327 347.38,-327 347.38,-236.5 514.88,-236.5 514.88,-327"/>
<text text-anchor="middle" x="431.12" y="-309.7" font-family="Helvetica,sans-Serif" font-size="14.00">petal width (cm) &lt;= 1.55</text>
<text text-anchor="middle" x="431.12" y="-293.2" font-family="Helvetica,sans-Serif" font-size="14.00">gini = 0.444</text>
<text text-anchor="middle" x="431.12" y="-276.7" font-family="Helvetica,sans-Serif" font-size="14.00">samples = 6</text>
<text text-anchor="middle" x="431.12" y="-260.2" font-family="Helvetica,sans-Serif" font-size="14.00">value = [0, 2, 4]</text>
<text text-anchor="middle" x="431.12" y="-243.7" font-family="Helvetica,sans-Serif" font-size="14.00">class = virginica</text>
</g>
<!-- 3&#45;&gt;7 -->
<g id="edge7" class="edge">
<title>3&#45;&gt;7</title>
<path fill="none" stroke="black" d="M431.12,-362.65C431.12,-354.79 431.12,-346.51 431.12,-338.39"/>
<polygon fill="black" stroke="black" points="434.63,-338.45 431.12,-328.45 427.63,-338.45 434.63,-338.45"/>
</g>
<!-- 5 -->
<g id="node6" class="node">
<title>5</title>
<polygon fill="#39e581" stroke="black" points="126.25,-192.25 0,-192.25 0,-118.25 126.25,-118.25 126.25,-192.25"/>
<text text-anchor="middle" x="63.12" y="-174.95" font-family="Helvetica,sans-Serif" font-size="14.00">gini = 0.0</text>
<text text-anchor="middle" x="63.12" y="-158.45" font-family="Helvetica,sans-Serif" font-size="14.00">samples = 37</text>
<text text-anchor="middle" x="63.12" y="-141.95" font-family="Helvetica,sans-Serif" font-size="14.00">value = [0, 37, 0]</text>
<text text-anchor="middle" x="63.12" y="-125.45" font-family="Helvetica,sans-Serif" font-size="14.00">class = versicolor</text>
</g>
<!-- 4&#45;&gt;5 -->
<g id="edge5" class="edge">
<title>4&#45;&gt;5</title>
<path fill="none" stroke="black" d="M152.34,-236.15C139.05,-224.25 124.71,-211.41 111.5,-199.58"/>
<polygon fill="black" stroke="black" points="114.22,-197.42 104.44,-193.36 109.55,-202.63 114.22,-197.42"/>
</g>
<!-- 6 -->
<g id="node7" class="node">
<title>6</title>
<polygon fill="#8139e5" stroke="black" points="260,-192.25 144.25,-192.25 144.25,-118.25 260,-118.25 260,-192.25"/>
<text text-anchor="middle" x="202.12" y="-174.95" font-family="Helvetica,sans-Serif" font-size="14.00">gini = 0.0</text>
<text text-anchor="middle" x="202.12" y="-158.45" font-family="Helvetica,sans-Serif" font-size="14.00">samples = 1</text>
<text text-anchor="middle" x="202.12" y="-141.95" font-family="Helvetica,sans-Serif" font-size="14.00">value = [0, 0, 1]</text>
<text text-anchor="middle" x="202.12" y="-125.45" font-family="Helvetica,sans-Serif" font-size="14.00">class = virginica</text>
</g>
<!-- 4&#45;&gt;6 -->
<g id="edge6" class="edge">
<title>4&#45;&gt;6</title>
<path fill="none" stroke="black" d="M202.12,-236.15C202.12,-225.49 202.12,-214.06 202.12,-203.29"/>
<polygon fill="black" stroke="black" points="205.63,-203.36 202.12,-193.36 198.63,-203.36 205.63,-203.36"/>
</g>
<!-- 8 -->
<g id="node9" class="node">
<title>8</title>
<polygon fill="#8139e5" stroke="black" points="394,-192.25 278.25,-192.25 278.25,-118.25 394,-118.25 394,-192.25"/>
<text text-anchor="middle" x="336.12" y="-174.95" font-family="Helvetica,sans-Serif" font-size="14.00">gini = 0.0</text>
<text text-anchor="middle" x="336.12" y="-158.45" font-family="Helvetica,sans-Serif" font-size="14.00">samples = 3</text>
<text text-anchor="middle" x="336.12" y="-141.95" font-family="Helvetica,sans-Serif" font-size="14.00">value = [0, 0, 3]</text>
<text text-anchor="middle" x="336.12" y="-125.45" font-family="Helvetica,sans-Serif" font-size="14.00">class = virginica</text>
</g>
<!-- 7&#45;&gt;8 -->
<g id="edge8" class="edge">
<title>7&#45;&gt;8</title>
<path fill="none" stroke="black" d="M397.1,-236.15C388.36,-224.7 378.95,-212.38 370.21,-200.92"/>
<polygon fill="black" stroke="black" points="372.52,-199.18 363.68,-193.36 366.96,-203.43 372.52,-199.18"/>
</g>
<!-- 9 -->
<g id="node10" class="node">
<title>9</title>
<polygon fill="#9cf2c0" stroke="black" points="585.88,-200.5 412.38,-200.5 412.38,-110 585.88,-110 585.88,-200.5"/>
<text text-anchor="middle" x="499.12" y="-183.2" font-family="Helvetica,sans-Serif" font-size="14.00">petal length (cm) &lt;= 5.45</text>
<text text-anchor="middle" x="499.12" y="-166.7" font-family="Helvetica,sans-Serif" font-size="14.00">gini = 0.444</text>
<text text-anchor="middle" x="499.12" y="-150.2" font-family="Helvetica,sans-Serif" font-size="14.00">samples = 3</text>
<text text-anchor="middle" x="499.12" y="-133.7" font-family="Helvetica,sans-Serif" font-size="14.00">value = [0, 2, 1]</text>
<text text-anchor="middle" x="499.12" y="-117.2" font-family="Helvetica,sans-Serif" font-size="14.00">class = versicolor</text>
</g>
<!-- 7&#45;&gt;9 -->
<g id="edge9" class="edge">
<title>7&#45;&gt;9</title>
<path fill="none" stroke="black" d="M455.48,-236.15C460.02,-227.84 464.81,-219.07 469.49,-210.5"/>
<polygon fill="black" stroke="black" points="472.99,-212.41 474.71,-201.95 466.84,-209.05 472.99,-212.41"/>
</g>
<!-- 10 -->
<g id="node11" class="node">
<title>10</title>
<polygon fill="#39e581" stroke="black" points="492.25,-74 366,-74 366,0 492.25,0 492.25,-74"/>
<text text-anchor="middle" x="429.12" y="-56.7" font-family="Helvetica,sans-Serif" font-size="14.00">gini = 0.0</text>
<text text-anchor="middle" x="429.12" y="-40.2" font-family="Helvetica,sans-Serif" font-size="14.00">samples = 2</text>
<text text-anchor="middle" x="429.12" y="-23.7" font-family="Helvetica,sans-Serif" font-size="14.00">value = [0, 2, 0]</text>
<text text-anchor="middle" x="429.12" y="-7.2" font-family="Helvetica,sans-Serif" font-size="14.00">class = versicolor</text>
</g>
<!-- 9&#45;&gt;10 -->
<g id="edge10" class="edge">
<title>9&#45;&gt;10</title>
<path fill="none" stroke="black" d="M472.26,-109.64C467.16,-101.17 461.82,-92.3 456.7,-83.8"/>
<polygon fill="black" stroke="black" points="459.2,-82.15 451.04,-75.39 453.2,-85.77 459.2,-82.15"/>
</g>
<!-- 11 -->
<g id="node12" class="node">
<title>11</title>
<polygon fill="#8139e5" stroke="black" points="626,-74 510.25,-74 510.25,0 626,0 626,-74"/>
<text text-anchor="middle" x="568.12" y="-56.7" font-family="Helvetica,sans-Serif" font-size="14.00">gini = 0.0</text>
<text text-anchor="middle" x="568.12" y="-40.2" font-family="Helvetica,sans-Serif" font-size="14.00">samples = 1</text>
<text text-anchor="middle" x="568.12" y="-23.7" font-family="Helvetica,sans-Serif" font-size="14.00">value = [0, 0, 1]</text>
<text text-anchor="middle" x="568.12" y="-7.2" font-family="Helvetica,sans-Serif" font-size="14.00">class = virginica</text>
</g>
<!-- 9&#45;&gt;11 -->
<g id="edge11" class="edge">
<title>9&#45;&gt;11</title>
<path fill="none" stroke="black" d="M525.6,-109.64C530.63,-101.17 535.9,-92.3 540.94,-83.8"/>
<polygon fill="black" stroke="black" points="544.43,-85.78 546.52,-75.39 538.41,-82.21 544.43,-85.78"/>
</g>
<!-- 13 -->
<g id="node14" class="node">
<title>13</title>
<polygon fill="#c09cf2" stroke="black" points="755.75,-327 578.5,-327 578.5,-236.5 755.75,-236.5 755.75,-327"/>
<text text-anchor="middle" x="667.12" y="-309.7" font-family="Helvetica,sans-Serif" font-size="14.00">sepal length (cm) &lt;= 5.95</text>
<text text-anchor="middle" x="667.12" y="-293.2" font-family="Helvetica,sans-Serif" font-size="14.00">gini = 0.444</text>
<text text-anchor="middle" x="667.12" y="-276.7" font-family="Helvetica,sans-Serif" font-size="14.00">samples = 3</text>
<text text-anchor="middle" x="667.12" y="-260.2" font-family="Helvetica,sans-Serif" font-size="14.00">value = [0, 1, 2]</text>
<text text-anchor="middle" x="667.12" y="-243.7" font-family="Helvetica,sans-Serif" font-size="14.00">class = virginica</text>
</g>
<!-- 12&#45;&gt;13 -->
<g id="edge13" class="edge">
<title>12&#45;&gt;13</title>
<path fill="none" stroke="black" d="M667.12,-362.65C667.12,-354.79 667.12,-346.51 667.12,-338.39"/>
<polygon fill="black" stroke="black" points="670.63,-338.45 667.12,-328.45 663.63,-338.45 670.63,-338.45"/>
</g>
<!-- 16 -->
<g id="node17" class="node">
<title>16</title>
<polygon fill="#8139e5" stroke="black" points="894.25,-318.75 774,-318.75 774,-244.75 894.25,-244.75 894.25,-318.75"/>
<text text-anchor="middle" x="834.12" y="-301.45" font-family="Helvetica,sans-Serif" font-size="14.00">gini = 0.0</text>
<text text-anchor="middle" x="834.12" y="-284.95" font-family="Helvetica,sans-Serif" font-size="14.00">samples = 33</text>
<text text-anchor="middle" x="834.12" y="-268.45" font-family="Helvetica,sans-Serif" font-size="14.00">value = [0, 0, 33]</text>
<text text-anchor="middle" x="834.12" y="-251.95" font-family="Helvetica,sans-Serif" font-size="14.00">class = virginica</text>
</g>
<!-- 12&#45;&gt;16 -->
<g id="edge16" class="edge">
<title>12&#45;&gt;16</title>
<path fill="none" stroke="black" d="M726.94,-362.65C743.13,-350.59 760.62,-337.55 776.67,-325.58"/>
<polygon fill="black" stroke="black" points="778.5,-327.84 784.43,-319.06 774.32,-322.23 778.5,-327.84"/>
</g>
<!-- 14 -->
<g id="node15" class="node">
<title>14</title>
<polygon fill="#39e581" stroke="black" points="730.25,-192.25 604,-192.25 604,-118.25 730.25,-118.25 730.25,-192.25"/>
<text text-anchor="middle" x="667.12" y="-174.95" font-family="Helvetica,sans-Serif" font-size="14.00">gini = 0.0</text>
<text text-anchor="middle" x="667.12" y="-158.45" font-family="Helvetica,sans-Serif" font-size="14.00">samples = 1</text>
<text text-anchor="middle" x="667.12" y="-141.95" font-family="Helvetica,sans-Serif" font-size="14.00">value = [0, 1, 0]</text>
<text text-anchor="middle" x="667.12" y="-125.45" font-family="Helvetica,sans-Serif" font-size="14.00">class = versicolor</text>
</g>
<!-- 13&#45;&gt;14 -->
<g id="edge14" class="edge">
<title>13&#45;&gt;14</title>
<path fill="none" stroke="black" d="M667.12,-236.15C667.12,-225.49 667.12,-214.06 667.12,-203.29"/>
<polygon fill="black" stroke="black" points="670.63,-203.36 667.12,-193.36 663.63,-203.36 670.63,-203.36"/>
</g>
<!-- 15 -->
<g id="node16" class="node">
<title>15</title>
<polygon fill="#8139e5" stroke="black" points="864,-192.25 748.25,-192.25 748.25,-118.25 864,-118.25 864,-192.25"/>
<text text-anchor="middle" x="806.12" y="-174.95" font-family="Helvetica,sans-Serif" font-size="14.00">gini = 0.0</text>
<text text-anchor="middle" x="806.12" y="-158.45" font-family="Helvetica,sans-Serif" font-size="14.00">samples = 2</text>
<text text-anchor="middle" x="806.12" y="-141.95" font-family="Helvetica,sans-Serif" font-size="14.00">value = [0, 0, 2]</text>
<text text-anchor="middle" x="806.12" y="-125.45" font-family="Helvetica,sans-Serif" font-size="14.00">class = virginica</text>
</g>
<!-- 13&#45;&gt;15 -->
<g id="edge15" class="edge">
<title>13&#45;&gt;15</title>
<path fill="none" stroke="black" d="M716.91,-236.15C730.2,-224.25 744.54,-211.41 757.75,-199.58"/>
<polygon fill="black" stroke="black" points="759.7,-202.63 764.81,-193.36 755.03,-197.42 759.7,-202.63"/>
</g>
</g>
</svg>
