<?xml version="1.0" encoding="UTF-8" standalone="no"?>
<!DOCTYPE svg PUBLIC "-//W3C//DTD SVG 1.1//EN"
 "http://www.w3.org/Graphics/SVG/1.1/DTD/svg11.dtd">
<!-- Generated by graphviz version 8.0.5 (20230430.1635)
 -->
<!-- Title: Tree Pages: 1 -->
<svg width="569pt" height="462pt"
 viewBox="0.00 0.00 569.25 461.50" xmlns="http://www.w3.org/2000/svg" xmlns:xlink="http://www.w3.org/1999/xlink">
<g id="graph0" class="graph" transform="scale(1 1) rotate(0) translate(4 457.5)">
<title>Tree</title>
<polygon fill="white" stroke="none" points="-4,4 -4,-457.5 565.25,-457.5 565.25,4 -4,4"/>
<!-- 0 -->
<g id="node1" class="node">
<title>0</title>
<polygon fill="#ffffff" stroke="black" points="284.75,-453.5 119.5,-453.5 119.5,-363 284.75,-363 284.75,-453.5"/>
<text text-anchor="middle" x="202.12" y="-436.2" font-family="Helvetica,sans-Serif" font-size="14.00">petal length (cm) &lt;= 2.6</text>
<text text-anchor="middle" x="202.12" y="-419.7" font-family="Helvetica,sans-Serif" font-size="14.00">gini = 0.667</text>
<text text-anchor="middle" x="202.12" y="-403.2" font-family="Helvetica,sans-Serif" font-size="14.00">samples = 120</text>
<text text-anchor="middle" x="202.12" y="-386.7" font-family="Helvetica,sans-Serif" font-size="14.00">value = [40, 40, 40]</text>
<text text-anchor="middle" x="202.12" y="-370.2" font-family="Helvetica,sans-Serif" font-size="14.00">class = setosa</text>
</g>
<!-- 1 -->
<g id="node2" class="node">
<title>1</title>
<polygon fill="#e58139" stroke="black" points="181.25,-318.75 61,-318.75 61,-244.75 181.25,-244.75 181.25,-318.75"/>
<text text-anchor="middle" x="121.12" y="-301.45" font-family="Helvetica,sans-Serif" font-size="14.00">gini = 0.0</text>
<text text-anchor="middle" x="121.12" y="-284.95" font-family="Helvetica,sans-Serif" font-size="14.00">samples = 40</text>
<text text-anchor="middle" x="121.12" y="-268.45" font-family="Helvetica,sans-Serif" font-size="14.00">value = [40, 0, 0]</text>
<text text-anchor="middle" x="121.12" y="-251.95" font-family="Helvetica,sans-Serif" font-size="14.00">class = setosa</text>
</g>
<!-- 0&#45;&gt;1 -->
<g id="edge1" class="edge">
<title>0&#45;&gt;1</title>
<path fill="none" stroke="black" d="M173.11,-362.65C165.73,-351.31 157.8,-339.12 150.41,-327.76"/>
<polygon fill="black" stroke="black" points="153,-326.33 144.62,-319.86 147.14,-330.15 153,-326.33"/>
<text text-anchor="middle" x="139.44" y="-338.26" font-family="Helvetica,sans-Serif" font-size="14.00">True</text>
</g>
<!-- 2 -->
<g id="node3" class="node">
<title>2</title>
<polygon fill="#ffffff" stroke="black" points="366.88,-327 199.38,-327 199.38,-236.5 366.88,-236.5 366.88,-327"/>
<text text-anchor="middle" x="283.12" y="-309.7" font-family="Helvetica,sans-Serif" font-size="14.00">petal width (cm) &lt;= 1.75</text>
<text text-anchor="middle" x="283.12" y="-293.2" font-family="Helvetica,sans-Serif" font-size="14.00">gini = 0.5</text>
<text text-anchor="middle" x="283.12" y="-276.7" font-family="Helvetica,sans-Serif" font-size="14.00">samples = 80</text>
<text text-anchor="middle" x="283.12" y="-260.2" font-family="Helvetica,sans-Serif" font-size="14.00">value = [0, 40, 40]</text>
<text text-anchor="middle" x="283.12" y="-243.7" font-family="Helvetica,sans-Serif" font-size="14.00">class = versicolor</text>
</g>
<!-- 0&#45;&gt;2 -->
<g id="edge2" class="edge">
<title>0&#45;&gt;2</title>
<path fill="none" stroke="black" d="M231.14,-362.65C236.66,-354.16 242.5,-345.19 248.19,-336.45"/>
<polygon fill="black" stroke="black" points="251.52,-338.74 254.04,-328.45 245.65,-334.93 251.52,-338.74"/>
<text text-anchor="middle" x="259.22" y="-346.86" font-family="Helvetica,sans-Serif" font-size="14.00">False</text>
</g>
<!-- 3 -->
<g id="node4" class="node">
<title>3</title>
<polygon fill="#52e891" stroke="black" points="273.88,-200.5 100.38,-200.5 100.38,-110 273.88,-110 273.88,-200.5"/>
<text text-anchor="middle" x="187.12" y="-183.2" font-family="Helvetica,sans-Serif" font-size="14.00">petal length (cm) &lt;= 4.95</text>
<text text-anchor="middle" x="187.12" y="-166.7" font-family="Helvetica,sans-Serif" font-size="14.00">gini = 0.201</text>
<text text-anchor="middle" x="187.12" y="-150.2" font-family="Helvetica,sans-Serif" font-size="14.00">samples = 44</text>
<text text-anchor="middle" x="187.12" y="-133.7" font-family="Helvetica,sans-Serif" font-size="14.00">value = [0, 39, 5]</text>
<text text-anchor="middle" x="187.12" y="-117.2" font-family="Helvetica,sans-Serif" font-size="14.00">class = versicolor</text>
</g>
<!-- 2&#45;&gt;3 -->
<g id="edge3" class="edge">
<title>2&#45;&gt;3</title>
<path fill="none" stroke="black" d="M248.74,-236.15C242.05,-227.48 234.98,-218.31 228.11,-209.4"/>
<polygon fill="black" stroke="black" points="230.47,-207.73 221.59,-201.95 224.93,-212.01 230.47,-207.73"/>
</g>
<!-- 6 -->
<g id="node7" class="node">
<title>6</title>
<polygon fill="#853fe6" stroke="black" points="465.88,-200.5 292.38,-200.5 292.38,-110 465.88,-110 465.88,-200.5"/>
<text text-anchor="middle" x="379.12" y="-183.2" font-family="Helvetica,sans-Serif" font-size="14.00">petal length (cm) &lt;= 4.85</text>
<text text-anchor="middle" x="379.12" y="-166.7" font-family="Helvetica,sans-Serif" font-size="14.00">gini = 0.054</text>
<text text-anchor="middle" x="379.12" y="-150.2" font-family="Helvetica,sans-Serif" font-size="14.00">samples = 36</text>
<text text-anchor="middle" x="379.12" y="-133.7" font-family="Helvetica,sans-Serif" font-size="14.00">value = [0, 1, 35]</text>
<text text-anchor="middle" x="379.12" y="-117.2" font-family="Helvetica,sans-Serif" font-size="14.00">class = virginica</text>
</g>
<!-- 2&#45;&gt;6 -->
<g id="edge6" class="edge">
<title>2&#45;&gt;6</title>
<path fill="none" stroke="black" d="M317.51,-236.15C324.2,-227.48 331.27,-218.31 338.14,-209.4"/>
<polygon fill="black" stroke="black" points="341.32,-212.01 344.66,-201.95 335.78,-207.73 341.32,-212.01"/>
</g>
<!-- 4 -->
<g id="node5" class="node">
<title>4</title>
<polygon fill="#3ee684" stroke="black" points="126.25,-74 0,-74 0,0 126.25,0 126.25,-74"/>
<text text-anchor="middle" x="63.12" y="-56.7" font-family="Helvetica,sans-Serif" font-size="14.00">gini = 0.051</text>
<text text-anchor="middle" x="63.12" y="-40.2" font-family="Helvetica,sans-Serif" font-size="14.00">samples = 38</text>
<text text-anchor="middle" x="63.12" y="-23.7" font-family="Helvetica,sans-Serif" font-size="14.00">value = [0, 37, 1]</text>
<text text-anchor="middle" x="63.12" y="-7.2" font-family="Helvetica,sans-Serif" font-size="14.00">class = versicolor</text>
</g>
<!-- 3&#45;&gt;4 -->
<g id="edge4" class="edge">
<title>3&#45;&gt;4</title>
<path fill="none" stroke="black" d="M139.54,-109.64C129.83,-100.53 119.62,-90.96 109.93,-81.88"/>
<polygon fill="black" stroke="black" points="112.63,-79.68 102.94,-75.39 107.85,-84.79 112.63,-79.68"/>
</g>
<!-- 5 -->
<g id="node6" class="node">
<title>5</title>
<polygon fill="#c09cf2" stroke="black" points="260,-74 144.25,-74 144.25,0 260,0 260,-74"/>
<text text-anchor="middle" x="202.12" y="-56.7" font-family="Helvetica,sans-Serif" font-size="14.00">gini = 0.444</text>
<text text-anchor="middle" x="202.12" y="-40.2" font-family="Helvetica,sans-Serif" font-size="14.00">samples = 6</text>
<text text-anchor="middle" x="202.12" y="-23.7" font-family="Helvetica,sans-Serif" font-size="14.00">value = [0, 2, 4]</text>
<text text-anchor="middle" x="202.12" y="-7.2" font-family="Helvetica,sans-Serif" font-size="14.00">class = virginica</text>
</g>
<!-- 3&#45;&gt;5 -->
<g id="edge5" class="edge">
<title>3&#45;&gt;5</title>
<path fill="none" stroke="black" d="M192.88,-109.64C193.92,-101.63 195,-93.25 196.04,-85.17"/>
<polygon fill="black" stroke="black" points="199.62,-85.76 197.43,-75.39 192.68,-84.86 199.62,-85.76"/>
</g>
<!-- 7 -->
<g id="node8" class="node">
<title>7</title>
<polygon fill="#c09cf2" stroke="black" points="423,-74 307.25,-74 307.25,0 423,0 423,-74"/>
<text text-anchor="middle" x="365.12" y="-56.7" font-family="Helvetica,sans-Serif" font-size="14.00">gini = 0.444</text>
<text text-anchor="middle" x="365.12" y="-40.2" font-family="Helvetica,sans-Serif" font-size="14.00">samples = 3</text>
<text text-anchor="middle" x="365.12" y="-23.7" font-family="Helvetica,sans-Serif" font-size="14.00">value = [0, 1, 2]</text>
<text text-anchor="middle" x="365.12" y="-7.2" font-family="Helvetica,sans-Serif" font-size="14.00">class = virginica</text>
</g>
<!-- 6&#45;&gt;7 -->
<g id="edge7" class="edge">
<title>6&#45;&gt;7</title>
<path fill="none" stroke="black" d="M373.75,-109.64C372.79,-101.63 371.78,-93.25 370.81,-85.17"/>
<polygon fill="black" stroke="black" points="374.18,-84.9 369.51,-75.39 367.23,-85.74 374.18,-84.9"/>
</g>
<!-- 8 -->
<g id="node9" class="node">
<title>8</title>
<polygon fill="#8139e5" stroke="black" points="561.25,-74 441,-74 441,0 561.25,0 561.25,-74"/>
<text text-anchor="middle" x="501.12" y="-56.7" font-family="Helvetica,sans-Serif" font-size="14.00">gini = 0.0</text>
<text text-anchor="middle" x="501.12" y="-40.2" font-family="Helvetica,sans-Serif" font-size="14.00">samples = 33</text>
<text text-anchor="middle" x="501.12" y="-23.7" font-family="Helvetica,sans-Serif" font-size="14.00">value = [0, 0, 33]</text>
<text text-anchor="middle" x="501.12" y="-7.2" font-family="Helvetica,sans-Serif" font-size="14.00">class = virginica</text>
</g>
<!-- 6&#45;&gt;8 -->
<g id="edge8" class="edge">
<title>6&#45;&gt;8</title>
<path fill="none" stroke="black" d="M425.94,-109.64C435.5,-100.53 445.54,-90.96 455.07,-81.88"/>
<polygon fill="black" stroke="black" points="457.11,-84.83 461.93,-75.39 452.28,-79.76 457.11,-84.83"/>
</g>
</g>
</svg>
